<?xml version="1.0" encoding="utf-8"?>
<!-- Generator: Adobe Illustrator 18.0.0, SVG Export Plug-In . SVG Version: 6.00 Build 0)  -->
<!DOCTYPE svg PUBLIC "-//W3C//DTD SVG 1.1//EN" "http://www.w3.org/Graphics/SVG/1.1/DTD/svg11.dtd">
<svg version="1.1" id="Режим_изоляции"
	 xmlns="http://www.w3.org/2000/svg" xmlns:xlink="http://www.w3.org/1999/xlink" x="0px" y="0px" width="440px" height="440px"
	 viewBox="192 -120 440 440" enable-background="new 192 -120 440 440" xml:space="preserve">
<g>
	<path fill="#CBB0D4" d="M317.193,75.04h-17.802l-9.702,49.919h15.805c10.475,0,18.279-1.972,23.406-5.92
		c5.128-3.948,8.587-10.537,10.383-19.768c1.72-8.864,0.937-15.12-2.35-18.765C333.644,76.862,327.065,75.04,317.193,75.04z"/>
	<path fill="#CBB0D4" d="M519.993,75.04h-17.802l-9.702,49.919h15.804c10.475,0,18.279-1.972,23.406-5.92
		c5.129-3.948,8.587-10.537,10.383-19.768c1.72-8.864,0.938-15.12-2.35-18.765C536.443,76.862,529.865,75.04,519.993,75.04z"/>
	<path fill="#CBB0D4" d="M412-120c-121.503,0-220,98.497-220,220s98.497,220,220,220s220-98.497,220-220S533.503-120,412-120z
		 M349.822,130.311c-5.188,4.856-10.951,8.314-17.294,10.376c-6.342,2.065-14.42,3.095-24.24,3.095h-22.255l-6.163,31.711h-25.983
		l23.182-119.275h49.964c15.031,0,25.995,3.945,32.888,11.834c6.892,7.89,8.967,18.902,6.218,33.041
		c-1.132,5.824-3.047,11.15-5.742,15.974C357.699,121.894,354.176,126.309,349.822,130.311z M425.665,143.782l10.255-52.775
		c1.167-6.004,0.739-10.099-1.288-12.282c-2.027-2.184-6.339-3.276-12.934-3.276h-20.603l-13.279,68.332h-25.778l23.183-119.275
		h25.778l-6.163,31.711H427.8c14.449,0,24.416,2.522,29.902,7.56c5.485,5.041,7.129,13.209,4.935,24.5l-10.786,55.504H425.665z
		 M563.197,117.067c-2.698,4.827-6.22,9.242-10.575,13.245c-5.189,4.856-10.952,8.314-17.294,10.376
		c-6.342,2.065-14.421,3.095-24.241,3.095h-22.255l-6.162,31.711h-25.983L479.87,56.218h49.963c15.031,0,25.995,3.945,32.888,11.834
		c6.893,7.89,8.967,18.902,6.218,33.041C567.807,106.917,565.891,112.243,563.197,117.067z"/>
</g>
</svg>
